# Blender v2.79 (sub 0) OBJ File: ''
# www.blender.org
mtllib Pared_con_musgo3.mtl
o Default.001
v -8.125201 -0.004806 -0.202521
v 8.091953 -0.017946 -0.192702
v 8.084189 -0.006972 0.275934
v 7.417186 5.353786 0.202944
v -7.635814 5.317158 0.271312
v 8.136786 4.987897 0.229836
v -0.613305 2.310340 -0.295592
v -8.141597 0.004310 0.223765
v -8.087230 5.268070 -0.209901
v 7.434311 5.293895 -0.186638
v 8.222142 4.953041 -0.200839
v -8.149603 5.079529 0.197622
vt 1.056090 -0.075953
vt 1.053297 0.007713
vt -0.045580 -0.075243
vt -0.009303 1.005407
vt -0.045378 0.008076
vt 1.087837 0.929952
vt 1.090523 0.007604
vt 1.662585 0.386578
vt 2.187493 0.971389
vt 2.196780 0.009131
vt -0.085435 0.956083
vt -0.043732 0.964172
vt 1.012374 0.992769
vt 1.064410 1.085766
vt 1.011915 1.093115
vt -0.034053 1.089928
vt 1.064182 0.933375
vt 1.139825 0.992913
vt -0.086647 0.005945
vn 0.5792 -0.5836 -0.5692
vn 0.5671 -0.5762 0.5886
vn -0.5685 -0.5857 -0.5778
vn -0.0113 0.7093 0.7048
vn -0.5960 -0.5610 0.5746
vn 0.6882 0.3692 -0.6245
vn 0.0002 -0.0111 -0.9999
vn -0.4469 0.6196 -0.6452
vn -0.7549 0.3156 0.5749
vn 0.1975 0.8547 0.4800
vn 0.1536 0.8276 -0.5400
vn 0.5405 0.5001 0.6766
usemtl wall.001
s 1
f 2/1/1 3/2/2 1/3/3
f 3/2/2 5/4/4 8/5/5
f 11/6/6 2/7/1 7/8/7
f 9/9/8 7/8/7 1/10/3
f 9/11/8 8/5/5 12/12/9
f 11/6/6 3/2/2 2/7/1
f 4/13/10 11/14/6 10/15/11
f 9/16/8 12/12/9 5/4/4
f 5/4/4 4/13/10 10/15/11 9/16/8
f 7/8/7 2/7/1 1/10/3
f 4/13/10 5/4/4 3/2/2 6/17/12
f 1/3/3 3/2/2 8/5/5
f 7/8/7 9/9/8 10/18/11
f 7/8/7 10/18/11 11/6/6
f 8/5/5 5/4/4 12/12/9
f 9/11/8 1/19/3 8/5/5
f 6/17/12 3/2/2 11/6/6
f 4/13/10 6/17/12 11/14/6
