# Blender v2.79 (sub 0) OBJ File: ''
# www.blender.org
mtllib Muro_de_castillo2.mtl
o pCube1_Untitled.001
v -0.707541 0.726523 0.018077
v -0.707541 0.726523 0.238101
v 0.628217 0.726523 0.238101
v 0.628217 0.726523 0.018077
v 0.628217 0.726523 -0.043741
v 0.628217 0.726523 0.299919
v 0.628217 0.565760 0.260410
v 0.628218 0.570040 -0.004509
v 0.628218 0.012984 0.003148
v 0.628218 0.012984 0.253030
v -0.707541 0.012983 0.253030
v -0.707541 0.012983 0.003148
v -0.707541 0.570040 0.260687
v -0.707541 0.726523 0.299919
v -0.707541 0.565760 -0.004232
v -0.707541 0.726523 -0.043741
v -0.707541 0.726523 -0.043741
v -0.707541 0.726523 0.299919
v -0.039662 0.801339 0.269010
v -0.039662 0.801339 -0.012832
v 0.540255 0.726523 0.299919
v -0.619579 0.726523 0.299919
v 0.584236 0.801339 0.269010
v -0.619579 0.726523 0.238101
v 0.540255 0.726523 0.238101
v -0.663560 0.801339 0.269010
v -0.619579 0.726523 -0.043741
v 0.540255 0.726523 -0.043741
v -0.663560 0.801339 -0.012832
v 0.540255 0.726523 0.018077
v -0.619579 0.726523 0.018077
v 0.584236 0.801339 -0.012832
v 0.435132 0.726523 0.299919
v -0.514456 0.726523 0.299919
v 0.435132 0.726523 0.238101
v -0.514456 0.726523 0.238101
v -0.514456 0.726523 -0.043741
v 0.435132 0.726523 -0.043741
v -0.514456 0.726523 0.018077
v 0.435132 0.726523 0.018077
v 0.333240 0.726523 0.299919
v -0.412563 0.726523 0.299919
v 0.384186 0.801339 0.269010
v -0.412563 0.726523 0.238101
v 0.333240 0.726523 0.238101
v -0.463510 0.801339 0.269010
v -0.412563 0.726523 -0.043741
v 0.333240 0.726523 -0.043741
v -0.463510 0.801339 -0.012832
v 0.333240 0.726523 0.018077
v -0.412563 0.726523 0.018077
v 0.384186 0.801339 -0.012832
v 0.228353 0.726523 0.299919
v -0.307677 0.726523 0.299919
v 0.228353 0.726523 0.238101
v -0.307677 0.726523 0.238101
v -0.307677 0.726523 -0.043741
v 0.228353 0.726523 -0.043741
v -0.307677 0.726523 0.018077
v 0.228353 0.726523 0.018077
v 0.126167 0.726523 0.299919
v -0.205490 0.726523 0.299919
v 0.177260 0.801339 0.269010
v -0.205490 0.726523 0.238101
v 0.126167 0.726523 0.238101
v -0.256584 0.801339 0.269010
v -0.205490 0.726523 -0.043741
v 0.126167 0.726523 -0.043741
v -0.256584 0.801339 -0.012832
v 0.126167 0.726523 0.018077
v -0.205490 0.726523 0.018077
v 0.177260 0.801339 -0.012832
v 0.013192 0.726523 0.299919
v -0.092516 0.726523 0.299919
v 0.013192 0.726523 0.238101
v -0.092516 0.726523 0.238101
v -0.092516 0.726523 -0.043741
v 0.013192 0.726523 -0.043741
v -0.092516 0.726523 0.018077
v 0.013192 0.726523 0.018077
vt 0.375000 0.250000
vt 0.625000 0.250000
vt 0.375000 0.250000
vt 0.625000 0.250000
vt 0.375000 0.250000
vt 0.625000 0.500000
vt 0.375000 0.500000
vt 0.625000 0.500000
vt 0.625000 0.500000
vt 0.625000 0.250000
vt 0.625000 0.250000
vt 0.625000 0.500000
vt 0.375000 0.500000
vt 0.375000 0.250000
vt 0.375000 0.500000
vt 0.375000 0.500000
vt 0.375000 0.250000
vt 0.625000 0.500000
vt 0.625000 0.250000
vt 0.625000 0.250000
vt 0.625000 0.500000
vt 0.375000 0.250000
vt 0.375000 0.500000
vt 0.375000 0.500000
vt 0.375000 0.250000
vt 0.625000 0.500000
vt 0.625000 0.250000
vt 0.625000 0.250000
vt 0.625000 0.500000
vt 0.375000 0.250000
vt 0.375000 0.500000
vt 0.375000 0.500000
vt 0.375000 0.250000
vt 0.625000 0.500000
vt 0.625000 0.250000
vt 0.625000 0.250000
vt 0.625000 0.500000
vt 0.375000 0.250000
vt 0.375000 0.500000
vt 0.375000 0.500000
vt 0.375000 0.250000
vt 0.625000 0.500000
vt 0.625000 0.250000
vt 0.625000 0.250000
vt 0.625000 0.500000
vt 0.375000 0.250000
vt 0.375000 0.500000
vt 0.375000 0.500000
vt 0.375000 0.250000
vt 0.625000 0.500000
vt 0.625000 0.250000
vt 0.625000 0.250000
vt 0.625000 0.500000
vt 0.375000 0.250000
vt 0.375000 0.500000
vt 0.375000 0.500000
vt 0.375000 0.250000
vt 0.576509 1.079389
vt 0.500000 1.215121
vt 0.423492 1.079389
vt -1.224143 -0.778973
vt -1.267994 -0.644322
vt -1.355695 -0.778973
vt 0.423492 1.079389
vt 0.576509 1.079389
vt -1.355712 -0.493410
vt -1.311859 -0.628071
vt -1.224153 -0.493410
vt 0.423492 1.079389
vt 0.500000 1.215121
vt 0.576508 1.079389
vt -1.355712 -0.342489
vt -1.311860 -0.477150
vt -1.224157 -0.342489
vt 0.576508 1.079389
vt 0.423492 1.079389
vt -1.224143 -0.326228
vt -1.267993 -0.191577
vt -1.355694 -0.326228
vt -1.224143 -0.175316
vt -1.267994 -0.040666
vt -1.355694 -0.175317
vt 1.339453 1.079389
vt 1.403118 1.215121
vt 1.466783 1.079389
vt -1.355712 0.110246
vt -1.311859 -0.024415
vt -1.224153 0.110246
vt 1.466783 1.079389
vt 1.339453 1.079389
vt -1.355712 0.261163
vt -1.311859 0.126502
vt -1.224153 0.261163
vt -0.339454 1.079389
vt -0.403119 1.215121
vt -0.466783 1.079389
vt -1.224143 0.277414
vt -1.267994 0.412064
vt -1.355695 0.277414
vt -0.466783 1.079389
vt -0.339454 1.079389
vt -1.355712 0.562986
vt -1.311860 0.428325
vt -1.224157 0.562986
vt -0.339454 1.079389
vt -0.403119 1.215121
vt -0.466783 1.079389
vt -1.224143 0.579247
vt -1.267993 0.713898
vt -1.355695 0.579247
vt -0.466783 1.079389
vt -0.339454 1.079389
vt -1.224143 0.730163
vt -1.267993 0.864814
vt -1.355695 0.730163
vt 1.339453 1.079389
vt 1.403118 1.215121
vt 1.466783 1.079389
vt -1.355706 1.015735
vt -1.311854 0.881075
vt -1.224151 1.015735
vt 1.466783 1.079389
vt 1.339453 1.079389
vt -1.224143 1.031996
vt -1.267993 1.166647
vt -1.355694 1.031996
vt 1.039790 1.079389
vt 1.113537 1.215121
vt 1.187284 1.079389
vt -1.355706 1.317564
vt -1.311853 1.182903
vt -1.224147 1.317564
vt 1.187284 1.079389
vt 1.039790 1.079389
vt -1.355706 1.468470
vt -1.311853 1.333810
vt -1.224147 1.468471
vt -0.039790 1.079389
vt -0.113538 1.215121
vt -0.187285 1.079389
vt -1.224143 1.484727
vt -1.267993 1.619377
vt -1.355695 1.484727
vt -0.187285 1.079389
vt -0.039790 1.079389
vt -1.355706 1.770299
vt -1.311854 1.635638
vt -1.224151 1.770298
vt -0.039790 1.079389
vt -0.113537 1.215121
vt -0.187285 1.079389
vt -1.088289 1.726524
vt -1.132139 1.861174
vt -1.219840 1.726523
vt -0.187285 1.079389
vt -0.039790 1.079389
vt -1.088273 1.571024
vt -1.132123 1.705675
vt -1.219824 1.571024
vt 1.039790 1.079389
vt 1.113537 1.215121
vt 1.187284 1.079389
vt -1.219836 1.550692
vt -1.175984 1.416031
vt -1.088281 1.550691
vt 1.187284 1.079389
vt 1.039790 1.079389
vt -1.088289 1.261062
vt -1.132139 1.395714
vt -1.219840 1.261062
vt 0.740043 1.079389
vt 0.814003 1.215121
vt 0.887963 1.079389
vt -1.219836 1.240731
vt -1.175983 1.106070
vt -1.088277 1.240731
vt 0.887963 1.079389
vt 0.740043 1.079389
vt -1.219836 1.085747
vt -1.175983 0.951087
vt -1.088277 1.085747
vt 0.259957 1.079389
vt 0.185997 1.215121
vt 0.112037 1.079389
vt -1.088273 0.796114
vt -1.132123 0.930764
vt -1.219824 0.796114
vt 0.112037 1.079389
vt 0.259957 1.079389
vt -1.219836 0.775777
vt -1.175984 0.641116
vt -1.088281 0.775777
vt 0.259957 1.079389
vt 0.185997 1.215121
vt 0.112037 1.079389
vt -1.088273 0.486143
vt -1.132123 0.620794
vt -1.219824 0.486143
vt 0.112037 1.079389
vt 0.259957 1.079389
vt -1.088273 0.331160
vt -1.132123 0.465811
vt -1.219824 0.331160
vt 0.740043 1.079389
vt 0.814003 1.215121
vt 0.887963 1.079389
vt -1.219842 0.310828
vt -1.175990 0.176167
vt -1.088287 0.310828
vt 0.887963 1.079389
vt 0.740043 1.079389
vt -2.001117 1.574250
vt -1.446701 1.580795
vt -1.360013 1.861174
vt -2.091366 1.861174
vt 3.306224 1.500056
vt 3.306224 -0.529842
vt 3.869612 -0.529842
vt 3.869612 1.500056
vt -0.466783 0.796752
vt 1.466783 0.790154
vt 1.466783 0.796752
vt -0.466783 0.790154
vt 1.466783 -0.215121
vt -0.466783 -0.215121
vt -1.450270 -0.438521
vt -1.459802 0.558802
vt -1.991588 0.558802
vt -2.004680 -0.445067
vt -0.466783 -0.215121
vt 1.466783 -0.215121
vt -1.459792 0.576921
vt -1.991586 0.576921
vt -2.900537 1.230121
vt -2.689599 1.230121
vt -2.689599 1.338372
vt -2.900537 1.338372
vt 0.625000 0.250000
vt -2.689599 0.874771
vt -2.900537 0.874771
vt -2.900537 0.766520
vt -2.689599 0.766520
vt -2.689599 0.411174
vt -2.900537 0.411174
vt -2.900537 0.302924
vt -2.689599 0.302924
vt -2.900537 -0.160677
vt -2.689599 -0.160677
vt -2.689598 -0.052428
vt -2.900537 -0.052428
vt -2.900537 -0.624285
vt -2.690072 -0.624285
vt -2.690073 -0.516034
vt -2.900537 -0.516034
vt -2.690072 -0.979629
vt -2.900537 -0.979629
vt -2.900537 -1.087880
vt -2.690072 -1.087880
vt -2.690072 -1.443231
vt -2.900537 -1.443231
vt -2.900537 -1.551482
vt -2.690072 -1.551482
vt -2.900537 -2.015083
vt -2.690072 -2.015084
vt -2.690072 -1.906833
vt -2.900537 -1.906833
vt -2.900537 4.011730
vt -2.673843 4.011730
vt -2.673844 4.119979
vt -2.900537 4.119981
vt -2.673843 3.656378
vt -2.900537 3.656377
vt -2.900537 3.548129
vt -2.673843 3.548129
vt -2.673843 3.192783
vt -2.900537 3.192783
vt -2.900537 3.084532
vt -2.673843 3.084532
vt -2.900537 2.620931
vt -2.673843 2.620932
vt -2.673843 2.729182
vt -2.900537 2.729182
vt -2.091376 -0.725466
vt -1.360015 -0.725466
vt 2.339237 1.500056
vt 2.339237 -0.529842
vt 2.835304 -0.529842
vt 2.835304 1.500056
vn 0.0000 0.0000 0.0000
vn -0.5948 0.5797 -0.5569
vn 0.6669 -0.2426 -0.7046
vn -0.8244 -0.3624 -0.4348
vn 0.8578 0.3707 0.3561
vn -0.3429 -0.1886 0.9203
vn 0.6421 0.6783 0.3573
vn 0.5365 -0.8327 -0.1372
vn 0.8291 -0.0849 -0.5526
vn -0.4116 -0.6244 -0.6638
vn 0.0000 1.0000 0.0000
vn -0.2706 0.9239 -0.2706
vn -0.2706 -0.9239 0.2706
vn -0.6647 0.5816 0.4689
vn -0.1997 0.6868 -0.6988
vn 0.0000 -1.0000 -0.0000
vn 0.8951 -0.2089 -0.3939
vn 0.7249 0.4109 -0.5529
vn -0.0000 -0.0658 -0.9978
vn -0.0000 0.0658 0.9978
vn -0.2706 0.1476 0.9513
vn -0.2706 -0.1475 -0.9513
vn 0.3827 0.0000 0.9239
vn 0.2706 0.2706 -0.9239
vn 0.2706 -0.2707 0.9239
vn 0.0000 0.2073 -0.9783
vn 0.0000 -0.2073 0.9783
vn -0.0000 0.4064 -0.9137
vn 0.0000 -0.8331 0.5532
vn -0.0000 0.9989 -0.0473
vn 0.2706 0.9239 0.2706
vn 0.2706 -0.9239 -0.2706
vn 0.5405 -0.8346 -0.1060
vn 0.0000 0.0000 -1.0000
vn 0.0000 0.0000 1.0000
vn 0.0000 -0.2714 0.9625
vn 0.0000 -0.2204 0.9754
vn 0.0000 -0.7045 0.7097
vn 0.2434 -0.4338 0.8675
vn 0.9642 0.1187 0.2373
vn 0.9794 0.0904 0.1808
vn -0.5123 0.1478 0.8460
vn -0.1886 -0.4745 -0.8598
vn -0.0000 0.9078 -0.4193
vn 0.5774 0.5773 -0.5774
vn 0.3015 -0.3015 -0.9045
vn -0.3015 0.3015 0.9045
vn 0.5774 -0.4418 0.6866
vn -0.0000 -0.2120 -0.9773
vn -0.9479 0.2303 -0.2201
vn 0.0000 0.2174 -0.9761
vn -0.0000 -0.9989 0.0471
vn -0.0000 -0.9109 -0.4126
vn 0.0000 0.4472 -0.8944
vn -0.0000 0.2136 -0.9769
vn -0.0000 -0.2136 0.9769
vn -0.2925 0.5103 -0.8087
vn 0.7846 0.3914 -0.4808
vn 0.7625 0.3379 -0.5518
vn 0.5795 0.6253 0.5226
vn -0.5795 0.6253 0.5226
vn 0.5795 0.6253 -0.5226
vn -0.5795 0.6253 -0.5226
vn -0.5948 0.5797 0.5569
vn 0.5948 0.5797 0.5569
vn 0.5948 0.5797 -0.5569
vn 0.8574 0.3710 -0.3568
vn 0.5831 0.6159 -0.5298
vn 0.5831 0.6159 0.5298
vn -0.5831 0.6159 -0.5298
vn -0.5831 0.6159 0.5298
vn 0.5828 0.6166 -0.5292
vn 0.5828 0.6166 0.5292
vn -0.5828 0.6166 -0.5292
vn -0.5828 0.6166 0.5292
vn 1.0000 0.0000 0.0000
vn -0.0003 -0.2409 0.9706
vn -0.0001 -0.1283 0.9917
vn -0.0001 -0.1278 0.9918
vn 0.0003 -0.2409 -0.9706
vn 0.0001 -0.1283 -0.9917
vn 0.0001 -0.1278 -0.9918
vn -0.0001 -0.0135 -0.9999
vn -1.0000 0.0000 0.0000
vn 0.0001 -0.0135 0.9999
vn -0.3827 -0.9239 -0.0000
vn 0.3827 0.9239 0.0000
vn 0.9045 0.3016 0.3016
vn -0.3827 0.0000 -0.9239
vn -0.5773 0.5773 0.5774
vn 0.3016 0.3015 -0.9045
vn -0.5774 -0.5773 0.5774
vn -0.5774 -0.4418 0.6866
vn 0.3015 0.9045 -0.3016
usemtl lambert2
s 1
f 17/1/1 14/2/1 16/3/1
f 16/3/2 2/4/3 1/5/4
f 6/6/5 4/7/6 3/8/7
f 14/2/8 21/9/9 22/10/10
f 3/8/11 24/11/12 25/12/13
f 5/13/14 27/14/12 28/15/13
f 1/5/15 30/16/16 31/17/11
f 22/10/10 33/18/17 34/19/18
f 25/12/13 36/20/19 35/21/20
f 28/15/13 37/22/21 38/23/22
f 31/17/23 40/24/24 39/25/25
f 34/19/18 41/26/26 42/27/27
f 35/21/20 44/28/28 45/29/29
f 38/23/22 47/30/30 48/31/30
f 39/25/25 50/32/31 51/33/32
f 42/27/33 53/34/34 54/35/35
f 45/29/29 56/36/36 55/37/37
f 48/31/30 57/38/38 58/39/39
f 51/33/11 60/40/40 59/41/41
f 54/35/42 61/42/43 62/43/44
f 55/37/45 64/44/46 65/45/47
f 58/39/48 67/46/49 68/47/49
f 59/41/50 70/48/51 71/49/52
f 62/43/44 73/50/53 74/51/54
f 65/45/47 76/52/55 75/53/56
f 68/47/57 77/54/11 78/55/11
f 71/49/52 80/56/58 79/57/59
f 73/58/60 19/59/11 74/60/61
f 75/61/62 19/62/11 73/63/60
f 76/64/63 19/59/11 75/65/62
f 74/66/61 19/67/11 76/68/63
f 77/69/63 20/70/11 78/71/62
f 79/72/61 20/73/11 77/74/63
f 80/75/60 20/70/11 79/76/61
f 78/77/62 20/78/11 80/79/60
f 3/80/7 23/81/11 6/82/5
f 25/83/2 23/84/11 3/85/7
f 21/86/64 23/87/11 25/88/2
f 6/89/5 23/84/11 21/90/64
f 14/91/64 26/92/11 2/93/3
f 22/94/65 26/95/11 14/96/64
f 24/97/66 26/98/11 22/99/65
f 2/100/3 26/95/11 24/101/66
f 1/102/4 29/103/11 16/104/2
f 31/105/65 29/106/11 1/107/4
f 27/108/66 29/109/11 31/110/65
f 16/111/2 29/106/11 27/112/66
f 5/113/67 32/114/11 4/115/6
f 28/116/2 32/117/11 5/118/67
f 30/119/64 32/120/11 28/121/2
f 4/122/6 32/117/11 30/123/64
f 35/124/68 43/125/11 33/126/69
f 45/127/70 43/128/11 35/129/68
f 41/130/71 43/131/11 45/132/70
f 33/133/69 43/128/11 41/134/71
f 34/135/71 46/136/11 36/137/70
f 42/138/69 46/139/11 34/140/71
f 44/141/68 46/142/11 42/143/69
f 36/144/70 46/139/11 44/145/68
f 39/146/71 49/147/11 37/148/70
f 51/149/69 49/150/11 39/151/71
f 47/152/68 49/153/11 51/154/69
f 37/155/70 49/150/11 47/156/68
f 38/157/68 52/158/11 40/159/69
f 48/160/70 52/161/11 38/162/68
f 50/163/71 52/164/11 48/165/70
f 40/166/69 52/161/11 50/167/71
f 55/168/72 63/169/11 53/170/73
f 65/171/74 63/172/11 55/173/72
f 61/174/75 63/175/11 65/176/74
f 53/177/73 63/172/11 61/178/75
f 54/179/75 66/180/11 56/181/74
f 62/182/73 66/183/11 54/184/75
f 64/185/72 66/186/11 62/187/73
f 56/188/74 66/183/11 64/189/72
f 59/190/75 69/191/11 57/192/74
f 71/193/73 69/194/11 59/195/75
f 67/196/72 69/197/11 71/198/73
f 57/199/74 69/194/11 67/200/72
f 58/201/72 72/202/11 60/203/73
f 68/204/74 72/205/11 58/206/72
f 70/207/75 72/208/11 68/209/74
f 60/210/73 72/205/11 70/211/75
f 7/212/76 8/213/76 5/214/67 6/215/5
f 12/216/16 9/217/16 10/218/16 11/219/16
f 14/96/77 13/220/78 7/221/79 6/89/77
f 5/118/80 8/222/81 15/223/82 16/111/80
f 15/223/82 8/222/81 9/224/83 12/225/83
f 15/226/84 12/227/84 11/228/84 13/229/84
f 7/221/79 13/220/78 11/230/85 10/231/85
f 9/232/76 8/213/76 7/212/76 10/233/76
f 33/234/17 21/235/9 25/236/11 35/237/11
f 17/1/1 18/238/1 14/2/1
f 16/3/2 14/2/64 2/4/3
f 6/6/5 5/13/67 4/7/6
f 14/2/8 6/6/86 21/9/9
f 3/8/11 2/4/11 24/11/12
f 5/13/14 16/3/87 27/14/12
f 1/5/15 4/7/88 30/16/16
f 22/10/10 21/9/9 33/18/17
f 36/239/11 24/240/11 22/241/10 34/242/18
f 25/12/13 24/11/12 36/20/19
f 37/243/11 27/244/11 31/245/11 39/246/11
f 28/15/13 27/14/12 37/22/21
f 40/247/11 30/248/11 28/249/11 38/250/11
f 31/17/23 30/16/89 40/24/24
f 53/251/11 41/252/11 45/253/29 55/254/37
f 34/19/18 33/18/17 41/26/26
f 35/21/20 36/20/19 44/28/28
f 38/23/22 37/22/21 47/30/30
f 39/25/25 40/24/24 50/32/31
f 42/27/33 41/26/90 53/34/34
f 56/255/36 44/256/28 42/257/11 54/258/11
f 45/29/29 44/28/28 56/36/36
f 57/259/38 47/260/30 51/261/11 59/262/41
f 48/31/30 47/30/30 57/38/38
f 60/263/40 50/264/11 48/265/30 58/266/39
f 51/33/11 50/32/11 60/40/40
f 73/267/53 61/268/43 65/269/11 75/270/11
f 54/35/42 53/34/91 61/42/43
f 55/37/45 56/36/92 64/44/46
f 58/39/48 57/38/93 67/46/49
f 59/41/50 60/40/90 70/48/51
f 62/43/44 61/42/43 73/50/53
f 76/271/11 64/272/11 62/273/44 74/274/54
f 65/45/47 64/44/46 76/52/55
f 77/275/11 67/276/11 71/277/52 79/278/59
f 68/47/57 67/46/94 77/54/11
f 80/279/58 70/280/51 68/281/11 78/282/11
f 71/49/52 70/48/51 80/56/58
f 13/229/84 14/283/84 16/284/84 15/226/84
f 4/285/11 1/286/11 2/287/11 3/288/11
