# Blender v2.79 (sub 0) OBJ File: ''
# www.blender.org
mtllib Pilar_de_castillo.mtl
o pCylinder1_Untitled
v -0.278056 -0.068314 0.408367
v -0.336066 -0.068314 0.321547
v -0.422886 -0.068314 0.263536
v -0.525296 -0.068314 0.243166
v -0.627706 -0.068314 0.263536
v -0.714525 -0.068314 0.321547
v -0.772536 -0.068314 0.408366
v -0.792907 -0.068314 0.510776
v -0.772536 -0.068314 0.613187
v -0.714525 -0.068314 0.700006
v -0.627706 -0.068314 0.758017
v -0.525296 -0.068314 0.778387
v -0.422886 -0.068314 0.758017
v -0.336066 -0.068314 0.700006
v -0.278056 -0.068314 0.613187
v -0.257685 -0.068314 0.510776
v -0.278056 0.778227 0.408367
v -0.336066 0.778227 0.321548
v -0.422886 0.778227 0.263537
v -0.525296 0.778227 0.243166
v -0.627706 0.778227 0.263537
v -0.714525 0.778227 0.321547
v -0.772536 0.778227 0.408367
v -0.792907 0.778227 0.510776
v -0.772536 0.778227 0.613187
v -0.714525 0.778227 0.700006
v -0.627706 0.778227 0.758017
v -0.525296 0.778227 0.778387
v -0.422886 0.778227 0.758017
v -0.336066 0.778227 0.700006
v -0.278056 0.778227 0.613187
v -0.257685 0.778227 0.510776
v -0.230644 0.778227 0.388728
v -0.299779 0.778227 0.285260
v -0.403247 0.778227 0.216125
v -0.525296 0.778227 0.191848
v -0.647344 0.778227 0.216125
v -0.750812 0.778227 0.285260
v -0.819947 0.778227 0.388728
v -0.844224 0.778227 0.510776
v -0.819947 0.778227 0.632825
v -0.750812 0.778227 0.736293
v -0.647344 0.778227 0.805428
v -0.525296 0.778227 0.829705
v -0.403247 0.778227 0.805428
v -0.299780 0.778227 0.736293
v -0.230644 0.778227 0.632825
v -0.206368 0.778227 0.510776
v -0.230644 0.913700 0.388728
v -0.299779 0.913700 0.285260
v -0.403247 0.913700 0.216125
v -0.525296 0.913700 0.191848
v -0.647344 0.913700 0.216125
v -0.750812 0.913700 0.285260
v -0.819947 0.913700 0.388728
v -0.844224 0.913700 0.510776
v -0.819947 0.913700 0.632825
v -0.750812 0.913700 0.736293
v -0.647344 0.913700 0.805428
v -0.525296 0.913700 0.829705
v -0.403247 0.913700 0.805428
v -0.299780 0.913700 0.736293
v -0.230644 0.913700 0.632825
v -0.206368 0.913700 0.510777
v -0.310094 0.913700 0.421637
v -0.360587 0.913700 0.346068
v -0.436156 0.913700 0.295574
v -0.525296 0.913700 0.277843
v -0.614435 0.913700 0.295574
v -0.690004 0.913700 0.346068
v -0.740498 0.913700 0.421637
v -0.758229 0.913700 0.510777
v -0.740498 0.913700 0.599916
v -0.690005 0.913700 0.675485
v -0.614436 0.913700 0.725979
v -0.525296 0.913700 0.743710
v -0.436156 0.913700 0.725979
v -0.360587 0.913700 0.675485
v -0.310094 0.913700 0.599916
v -0.292363 0.913700 0.510777
v -0.310094 0.740936 0.421637
v -0.360587 0.740936 0.346068
v -0.525296 0.740937 0.510777
v -0.436156 0.740936 0.295575
v -0.525296 0.740936 0.277843
v -0.614435 0.740936 0.295574
v -0.690004 0.740936 0.346068
v -0.740498 0.740936 0.421637
v -0.758229 0.740936 0.510776
v -0.740498 0.740936 0.599917
v -0.690005 0.740936 0.675485
v -0.614436 0.740936 0.725979
v -0.525296 0.740936 0.743710
v -0.436156 0.740936 0.725979
v -0.360587 0.740936 0.675485
v -0.310094 0.740936 0.599917
v -0.292363 0.740936 0.510777
v -0.299779 0.973113 0.285260
v -0.403247 0.973113 0.216125
v -0.436156 0.973113 0.295574
v -0.360587 0.973113 0.346068
v -0.525296 0.973113 0.191848
v -0.647344 0.973113 0.216125
v -0.614435 0.973113 0.295574
v -0.525296 0.973113 0.277843
v -0.750812 0.973113 0.285260
v -0.819947 0.973113 0.388728
v -0.740498 0.973113 0.421637
v -0.690004 0.973113 0.346068
v -0.844224 0.973113 0.510777
v -0.819947 0.973113 0.632825
v -0.740498 0.973113 0.599917
v -0.758229 0.973113 0.510777
v -0.750812 0.973113 0.736293
v -0.647344 0.973113 0.805428
v -0.614436 0.973113 0.725979
v -0.690005 0.973113 0.675485
v -0.525296 0.973113 0.829705
v -0.403247 0.973113 0.805428
v -0.436156 0.973113 0.725979
v -0.525296 0.973113 0.743710
v -0.299780 0.973113 0.736293
v -0.230644 0.973113 0.632825
v -0.310094 0.973113 0.599916
v -0.360587 0.973113 0.675485
v -0.206368 0.973113 0.510776
v -0.230644 0.973113 0.388728
v -0.310094 0.973113 0.421637
v -0.292363 0.973113 0.510776
vt 3.829733 -0.310560
vt 4.023656 -0.310560
vt 4.023656 1.007194
vt 3.829733 1.007194
vt 4.217580 -0.310560
vt 4.217580 1.007194
vt 4.411504 -0.310560
vt 4.411504 1.007194
vt 1.308728 -0.310560
vt 1.502651 -0.310560
vt 1.502651 1.007194
vt 1.308728 1.007194
vt 1.696574 -0.310560
vt 1.696574 1.007194
vt 1.890498 -0.310560
vt 1.890498 1.007194
vt 2.084421 -0.310560
vt 2.084421 1.007194
vt 2.278345 -0.310560
vt 2.278345 1.007194
vt 2.472269 -0.310560
vt 2.472269 1.007194
vt 2.666192 -0.310560
vt 2.666192 1.007194
vt 2.860116 -0.310560
vt 2.860116 1.007194
vt 3.054039 -0.310560
vt 3.054039 1.007194
vt 3.247962 -0.310560
vt 3.247962 1.007194
vt 3.441886 -0.310560
vt 3.441886 1.007194
vt 3.635810 -0.310560
vt 3.635810 1.007194
vt 0.644356 0.903544
vt 0.610485 0.954235
vt 0.500000 0.837500
vt 0.559794 0.988106
vt 0.500000 1.000000
vt 0.440206 0.988106
vt 0.389515 0.954235
vt 0.355644 0.903544
vt 0.343750 0.843750
vt 0.355644 0.783956
vt 0.389515 0.733265
vt 0.440206 0.699394
vt 0.500000 0.687500
vt 0.559794 0.699394
vt 0.610485 0.733265
vt 0.644356 0.783956
vt 0.656250 0.843750
vt 0.886067 1.745540
vt 0.795482 1.609972
vt 0.852144 1.553309
vt 0.960099 1.714875
vt 0.659914 1.519388
vt 0.690580 1.445354
vt 0.500000 1.487579
vt 0.500000 1.407446
vt 0.340086 1.519388
vt 0.309421 1.445354
vt 0.204517 1.609971
vt 0.147855 1.553309
vt 0.113934 1.745540
vt 0.039901 1.714875
vt 0.082124 1.905453
vt 0.001992 1.905453
vt 0.113934 2.065368
vt 0.039901 2.096033
vt 0.204517 2.200936
vt 0.147855 2.257599
vt 0.340086 2.291520
vt 0.309421 2.365553
vt 0.500000 2.323329
vt 0.500000 2.403462
vt 0.659914 2.291521
vt 0.690580 2.365553
vt 0.795482 2.200936
vt 0.852144 2.257599
vt 0.886067 2.065368
vt 0.960099 2.096033
vt 0.917875 1.905453
vt 0.998007 1.905453
vt 3.829733 1.007194
vt 4.023657 1.007194
vt 4.023657 1.218076
vt 3.829733 1.218076
vt 4.217580 1.007194
vt 4.217580 1.218076
vt 4.411504 1.007194
vt 4.411504 1.218076
vt 1.308727 1.007194
vt 1.502651 1.007194
vt 1.502651 1.218076
vt 1.308727 1.218076
vt 1.696574 1.007194
vt 1.696574 1.218076
vt 1.890498 1.007194
vt 1.890498 1.218076
vt 2.084421 1.007194
vt 2.084421 1.218076
vt 2.278345 1.007194
vt 2.278345 1.218076
vt 2.472269 1.007194
vt 2.472269 1.218076
vt 2.666192 1.007194
vt 2.666192 1.218076
vt 2.860116 1.007194
vt 2.860116 1.218076
vt 3.054039 1.007194
vt 3.054039 1.218076
vt 3.247963 1.007194
vt 3.247963 1.218076
vt 3.441887 1.007194
vt 3.441887 1.218076
vt 3.635810 1.007194
vt 3.635810 1.218076
vt 0.215588 0.056096
vt 0.101925 0.226204
vt 0.001954 0.126233
vt 0.084969 0.001992
vt 0.322021 0.001992
vt 0.435685 0.172098
vt 0.305064 0.226204
vt 0.222050 0.101963
vt 0.132575 0.458248
vt 0.172487 0.658905
vt 0.031106 0.658905
vt 0.001954 0.512354
vt 0.350514 0.458248
vt 0.310602 0.658903
vt 0.179982 0.604799
vt 0.209134 0.458248
vt 0.655590 0.056096
vt 0.541926 0.226204
vt 0.441955 0.126233
vt 0.524969 0.001992
vt 0.775522 0.226204
vt 0.661859 0.056096
vt 0.792479 0.001992
vt 0.875494 0.126233
vt 0.397730 0.658903
vt 0.357817 0.458248
vt 0.499199 0.458248
vt 0.528350 0.604799
vt 0.535653 0.658903
vt 0.575566 0.458248
vt 0.706186 0.512352
vt 0.677035 0.658903
vt 0.765560 0.400228
vt 0.879222 0.230120
vt 0.979194 0.330091
vt 0.896179 0.454332
vt 0.659569 0.454332
vt 0.545907 0.284224
vt 0.676525 0.230120
vt 0.759540 0.354361
vt 0.753403 0.658903
vt 0.713489 0.458248
vt 0.854872 0.458248
vt 0.884021 0.604799
vt 0.808663 0.863476
vt 0.848574 0.662819
vt 0.979195 0.716925
vt 0.950045 0.863476
vt 0.326252 0.400226
vt 0.439916 0.230120
vt 0.539887 0.330093
vt 0.456873 0.454332
vt 0.206571 0.230120
vt 0.320234 0.400228
vt 0.189614 0.454332
vt 0.106599 0.330091
vt 0.762730 0.662819
vt 0.802643 0.863474
vt 0.661262 0.863474
vt 0.632111 0.716923
vt 0.626092 0.662819
vt 0.586179 0.863474
vt 0.455559 0.809370
vt 0.484711 0.662819
vt 3.829733 1.218076
vt 4.023657 1.218076
vt 4.023657 0.949146
vt 3.829734 0.949146
vt 4.217580 1.218076
vt 4.217580 0.949146
vt 4.411504 1.218076
vt 4.411504 0.949146
vt 1.308727 1.218076
vt 1.502651 1.218076
vt 1.502651 0.949146
vt 1.308727 0.949146
vt 1.696575 1.218076
vt 1.696575 0.949146
vt 1.890498 1.218076
vt 1.890497 0.949146
vt 2.084421 1.218076
vt 2.084421 0.949146
vt 2.278345 1.218076
vt 2.278345 0.949146
vt 2.472269 1.218076
vt 2.472268 0.949146
vt 2.666192 1.218076
vt 2.666192 0.949146
vt 2.860116 1.218076
vt 2.860116 0.949146
vt 3.054039 1.218076
vt 3.054039 0.949146
vt 3.247963 1.218076
vt 3.247963 0.949146
vt 3.441886 1.218076
vt 3.441886 0.949146
vt 3.635810 1.218076
vt 3.635810 0.949146
vt 4.217580 1.310560
vt 4.023657 1.310560
vt 0.067801 0.793440
vt 0.067801 0.662821
vt 0.139334 0.662821
vt 0.139334 0.793440
vt 4.023657 1.310560
vt 4.217580 1.310560
vt 0.550951 0.967361
vt 0.550951 0.867390
vt 0.622483 0.867390
vt 0.622483 0.967361
vt 1.502651 1.310560
vt 1.308727 1.310560
vt 0.001954 0.927975
vt 0.001954 0.797356
vt 0.073487 0.797356
vt 0.073487 0.927975
vt 1.308727 1.310560
vt 1.502651 1.310560
vt 0.378009 0.804199
vt 0.378009 0.662819
vt 0.449542 0.662819
vt 0.449542 0.804199
vt 1.890498 1.310560
vt 1.696574 1.310560
vt 0.080547 0.938737
vt 0.080547 0.808118
vt 0.152079 0.808118
vt 0.152079 0.938737
vt 1.696575 1.310560
vt 1.890498 1.310560
vt 0.629352 0.967361
vt 0.629352 0.867390
vt 0.700884 0.867390
vt 0.700884 0.967361
vt 2.278345 1.310560
vt 2.084421 1.310560
vt 0.158948 0.938737
vt 0.158948 0.808118
vt 0.230480 0.808118
vt 0.230480 0.938737
vt 2.084422 1.310560
vt 2.278345 1.310560
vt 0.371989 0.662821
vt 0.371989 0.804199
vt 0.300457 0.804199
vt 0.300457 0.662821
vt 2.666192 1.310560
vt 2.472269 1.310560
vt 0.237349 0.938735
vt 0.237349 0.808117
vt 0.308881 0.808117
vt 0.308881 0.938735
vt 2.472268 1.310560
vt 2.666192 1.310560
vt 0.707753 0.967362
vt 0.707753 0.867390
vt 0.779285 0.867391
vt 0.779285 0.967362
vt 3.054039 1.310560
vt 2.860116 1.310560
vt 0.315748 0.938737
vt 0.315748 0.808117
vt 0.387281 0.808117
vt 0.387281 0.938737
vt 2.860116 1.310560
vt 3.054039 1.310560
vt 0.222904 0.804201
vt 0.222904 0.662819
vt 0.294436 0.662819
vt 0.294436 0.804201
vt 3.441887 1.310560
vt 3.247963 1.310560
vt 0.465681 0.867394
vt 0.465681 0.998010
vt 0.394149 0.998010
vt 0.394149 0.867394
vt 3.247963 1.310560
vt 3.441886 1.310560
vt 0.786153 0.967363
vt 0.786153 0.867392
vt 0.857685 0.867392
vt 0.857685 0.967363
vt 3.829733 1.310560
vt 3.635810 1.310560
vt 0.544082 0.867394
vt 0.544082 0.998010
vt 0.472550 0.998010
vt 0.472550 0.867394
vt 3.635810 1.310560
vt 3.829734 1.310560
vt 0.145353 0.804202
vt 0.145353 0.662821
vt 0.216885 0.662821
vt 0.216885 0.804202
vn 0.9239 0.0000 -0.3827
vn 0.7071 0.0000 -0.7071
vn 0.3827 0.0000 -0.9239
vn 0.0000 0.0000 -1.0000
vn -0.3827 0.0000 -0.9239
vn -0.7071 0.0000 -0.7071
vn -0.9239 0.0000 -0.3827
vn -1.0000 0.0000 -0.0000
vn -0.9239 -0.0000 0.3827
vn -0.7071 -0.0000 0.7071
vn -0.3827 -0.0000 0.9239
vn -0.0000 -0.0000 1.0000
vn 0.3827 -0.0000 0.9239
vn 0.7071 -0.0000 0.7071
vn 0.9239 -0.0000 0.3827
vn 1.0000 0.0000 -0.0000
vn 0.0000 1.0000 0.0000
vn -0.0000 -1.0000 -0.0000
vn 0.6814 0.0000 -0.7319
vn 0.9370 -0.0000 -0.3494
vn 0.4155 0.0000 -0.9096
vn -0.0357 0.0000 -0.9994
vn -0.3494 0.0000 -0.9370
vn -0.7319 0.0000 -0.6814
vn -0.9096 0.0000 -0.4155
vn -0.9994 0.0000 0.0357
vn -0.9370 -0.0000 0.3494
vn -0.6814 0.0000 0.7319
vn -0.4155 0.0000 0.9096
vn 0.0357 -0.0000 0.9994
vn 0.3494 -0.0000 0.9370
vn 0.7319 -0.0000 0.6814
vn 0.9096 -0.0000 0.4155
vn 0.9994 -0.0000 -0.0357
vn -0.9346 0.0000 0.3556
vn -0.6862 0.0000 0.7274
vn -0.4095 0.0000 0.9123
vn 0.0292 0.0000 0.9996
vn 0.3556 0.0000 0.9346
vn 0.7274 0.0000 0.6862
vn 0.9123 -0.0000 0.4095
vn 0.9996 0.0000 -0.0292
vn 0.9346 0.0000 -0.3556
vn 0.6862 0.0000 -0.7274
vn 0.4095 0.0000 -0.9123
vn -0.0292 0.0000 -0.9996
vn -0.3556 0.0000 -0.9346
vn -0.7274 0.0000 -0.6862
vn -0.9123 -0.0000 -0.4095
vn -0.9996 0.0000 0.0292
vn 0.5556 0.0000 -0.8315
vn -0.5556 -0.0000 0.8315
vn -0.1951 0.0000 -0.9808
vn 0.1951 -0.0000 0.9808
vn -0.8315 0.0000 -0.5556
vn 0.8315 0.0000 0.5556
vn -0.9808 0.0000 0.1951
vn 0.9808 0.0000 -0.1951
usemtl lambert2
s 1
f 1/1/1 2/2/2 18/3/2 17/4/1
f 2/2/2 3/5/3 19/6/3 18/3/2
f 3/5/3 4/7/4 20/8/4 19/6/3
f 4/9/4 5/10/5 21/11/5 20/12/4
f 5/10/5 6/13/6 22/14/6 21/11/5
f 6/13/6 7/15/7 23/16/7 22/14/6
f 7/15/7 8/17/8 24/18/8 23/16/7
f 8/17/8 9/19/9 25/20/9 24/18/8
f 9/19/9 10/21/10 26/22/10 25/20/9
f 10/21/10 11/23/11 27/24/11 26/22/10
f 11/23/11 12/25/12 28/26/12 27/24/11
f 12/25/12 13/27/13 29/28/13 28/26/12
f 13/27/13 14/29/14 30/30/14 29/28/13
f 14/29/14 15/31/15 31/32/15 30/30/14
f 15/31/15 16/33/16 32/34/16 31/32/15
f 16/33/16 1/1/1 17/4/1 32/34/16
f 81/35/17 82/36/17 83/37/17
f 82/36/17 84/38/17 83/37/17
f 84/38/17 85/39/17 83/37/17
f 85/39/17 86/40/17 83/37/17
f 86/40/17 87/41/17 83/37/17
f 87/41/17 88/42/17 83/37/17
f 88/42/17 89/43/17 83/37/17
f 89/43/17 90/44/17 83/37/17
f 90/44/17 91/45/17 83/37/17
f 91/45/17 92/46/17 83/37/17
f 92/46/17 93/47/17 83/37/17
f 93/47/17 94/48/17 83/37/17
f 94/48/17 95/49/17 83/37/17
f 95/49/17 96/50/17 83/37/17
f 96/50/17 97/51/17 83/37/17
f 97/51/17 81/35/17 83/37/17
f 17/52/18 18/53/18 34/54/18 33/55/18
f 18/53/18 19/56/18 35/57/18 34/54/18
f 19/56/18 20/58/18 36/59/18 35/57/18
f 20/58/18 21/60/18 37/61/18 36/59/18
f 21/60/18 22/62/18 38/63/18 37/61/18
f 22/62/18 23/64/18 39/65/18 38/63/18
f 23/64/18 24/66/18 40/67/18 39/65/18
f 24/66/18 25/68/18 41/69/18 40/67/18
f 25/68/18 26/70/18 42/71/18 41/69/18
f 26/70/18 27/72/18 43/73/18 42/71/18
f 27/72/18 28/74/18 44/75/18 43/73/18
f 28/74/18 29/76/18 45/77/18 44/75/18
f 29/76/18 30/78/18 46/79/18 45/77/18
f 30/78/18 31/80/18 47/81/18 46/79/18
f 31/80/18 32/82/18 48/83/18 47/81/18
f 32/82/18 17/52/18 33/55/18 48/83/18
f 33/84/1 34/85/2 50/86/19 49/87/20
f 34/85/2 35/88/3 51/89/21 50/86/19
f 35/88/3 36/90/4 52/91/22 51/89/21
f 36/92/4 37/93/5 53/94/23 52/95/22
f 37/93/5 38/96/6 54/97/24 53/94/23
f 38/96/6 39/98/7 55/99/25 54/97/24
f 39/98/7 40/100/8 56/101/26 55/99/25
f 40/100/8 41/102/9 57/103/27 56/101/26
f 41/102/9 42/104/10 58/105/28 57/103/27
f 42/104/10 43/106/11 59/107/29 58/105/28
f 43/106/11 44/108/12 60/109/30 59/107/29
f 44/108/12 45/110/13 61/111/31 60/109/30
f 45/110/13 46/112/14 62/113/32 61/111/31
f 46/112/14 47/114/15 63/115/33 62/113/32
f 47/114/15 48/116/16 64/117/34 63/115/33
f 48/116/16 33/84/1 49/87/20 64/117/34
f 49/118/17 50/119/17 66/120/17 65/121/17
f 98/122/17 99/123/17 100/124/17 101/125/17
f 51/126/17 52/127/17 68/128/17 67/129/17
f 102/130/17 103/131/17 104/132/17 105/133/17
f 53/134/17 54/135/17 70/136/17 69/137/17
f 106/138/17 107/139/17 108/140/17 109/141/17
f 55/142/17 56/143/17 72/144/17 71/145/17
f 110/146/17 111/147/17 112/148/17 113/149/17
f 57/150/17 58/151/17 74/152/17 73/153/17
f 114/154/17 115/155/17 116/156/17 117/157/17
f 59/158/17 60/159/17 76/160/17 75/161/17
f 118/162/17 119/163/17 120/164/17 121/165/17
f 61/166/17 62/167/17 78/168/17 77/169/17
f 122/170/17 123/171/17 124/172/17 125/173/17
f 63/174/17 64/175/17 80/176/17 79/177/17
f 126/178/17 127/179/17 128/180/17 129/181/17
f 65/182/35 66/183/36 82/184/10 81/185/9
f 66/183/36 67/186/37 84/187/11 82/184/10
f 67/186/37 68/188/38 85/189/12 84/187/11
f 68/190/38 69/191/39 86/192/13 85/193/12
f 69/191/39 70/194/40 87/195/14 86/192/13
f 70/194/40 71/196/41 88/197/15 87/195/14
f 71/196/41 72/198/42 89/199/16 88/197/15
f 72/198/42 73/200/43 90/201/1 89/199/16
f 73/200/43 74/202/44 91/203/2 90/201/1
f 74/202/44 75/204/45 92/205/3 91/203/2
f 75/204/45 76/206/46 93/207/4 92/205/3
f 76/206/46 77/208/47 94/209/5 93/207/4
f 77/208/47 78/210/48 95/211/6 94/209/5
f 78/210/48 79/212/49 96/213/7 95/211/6
f 79/212/49 80/214/50 97/215/8 96/213/7
f 80/214/50 65/182/35 81/185/9 97/215/8
f 50/86/19 51/89/21 99/216/51 98/217/51
f 51/218/7 67/219/7 100/220/7 99/221/7
f 67/186/37 66/183/36 101/222/52 100/223/52
f 66/224/14 50/225/14 98/226/14 101/227/14
f 52/95/22 53/94/23 103/228/53 102/229/53
f 53/230/9 69/231/9 104/232/9 103/233/9
f 69/191/39 68/190/38 105/234/54 104/235/54
f 68/236/16 52/237/16 102/238/16 105/239/16
f 54/97/24 55/99/25 107/240/55 106/241/55
f 55/242/11 71/243/11 108/244/11 107/245/11
f 71/196/41 70/194/40 109/246/56 108/247/56
f 70/248/2 54/249/2 106/250/2 109/251/2
f 56/101/26 57/103/27 111/252/57 110/253/57
f 57/254/13 73/255/13 112/256/13 111/257/13
f 73/200/43 72/198/42 113/258/58 112/259/58
f 72/260/4 56/261/4 110/262/4 113/263/4
f 58/105/28 59/107/29 115/264/52 114/265/52
f 59/266/15 75/267/15 116/268/15 115/269/15
f 75/204/45 74/202/44 117/270/51 116/271/51
f 74/272/6 58/273/6 114/274/6 117/275/6
f 60/109/30 61/111/31 119/276/54 118/277/54
f 61/278/1 77/279/1 120/280/1 119/281/1
f 77/208/47 76/206/46 121/282/53 120/283/53
f 76/284/8 60/285/8 118/286/8 121/287/8
f 62/113/32 63/115/33 123/288/56 122/289/56
f 63/290/3 79/291/3 124/292/3 123/293/3
f 79/212/49 78/210/48 125/294/55 124/295/55
f 78/296/10 62/297/10 122/298/10 125/299/10
f 64/117/34 49/87/20 127/300/58 126/301/58
f 49/302/5 65/303/5 128/304/5 127/305/5
f 65/182/35 80/214/50 129/306/57 128/307/57
f 80/308/12 64/309/12 126/310/12 129/311/12
