# Blender v2.79 (sub 0) OBJ File: 'poste_luz3.blend'
# www.blender.org
mtllib poste_luz3.mtl
o Cube
v 4.013686 0.045125 -4.121439
v 4.013686 0.045125 3.878978
v -3.986731 0.045125 3.878977
v -3.986729 0.045125 -4.121441
v 4.013688 0.429760 -4.121438
v 4.013684 0.429760 3.878980
v -3.986732 0.429760 3.878976
v -3.986730 0.429760 -4.121439
v -1.630054 0.409245 -1.751691
v -0.891554 4.203045 -1.013191
v -1.630054 0.409245 1.571559
v -0.891554 4.203045 0.833059
v 1.693196 0.409245 -1.751691
v 0.954696 4.203045 -1.013191
v 1.693196 0.409245 1.571559
v 0.954696 4.203045 0.833059
v 0.020541 4.197387 -0.722155
v 0.020541 13.202185 -0.722155
v 0.140603 4.197387 -0.710330
v 0.140603 13.202185 -0.710330
v 0.256051 4.197387 -0.675309
v 0.256051 13.202185 -0.675309
v 0.362449 4.197387 -0.618438
v 0.362449 13.202185 -0.618438
v 0.455707 4.197387 -0.541903
v 0.455707 13.202185 -0.541903
v 0.532242 4.197387 -0.448645
v 0.532242 13.202185 -0.448645
v 0.589112 4.197387 -0.342248
v 0.589112 13.202185 -0.342248
v 0.624133 4.197387 -0.226800
v 0.624133 13.202185 -0.226800
v 0.635958 4.197387 -0.106738
v 0.635958 13.202185 -0.106738
v 0.624133 4.197387 0.013324
v 0.624133 13.202185 0.013324
v 0.589112 4.197387 0.128772
v 0.589112 13.202185 0.128772
v 0.532242 4.197387 0.235169
v 0.532242 13.202185 0.235169
v 0.455707 4.197387 0.328427
v 0.455707 13.202185 0.328427
v 0.362449 4.197387 0.404962
v 0.362449 13.202185 0.404962
v 0.256051 4.197387 0.461833
v 0.256051 13.202185 0.461833
v 0.140603 4.197387 0.496854
v 0.140603 13.202185 0.496854
v 0.020541 4.197387 0.508678
v 0.020541 13.202185 0.508678
v -0.099521 4.197387 0.496853
v -0.099521 13.202185 0.496853
v -0.214969 4.197387 0.461833
v -0.214969 13.202185 0.461833
v -0.321366 4.197387 0.404962
v -0.321366 13.202185 0.404962
v -0.414624 4.197387 0.328427
v -0.414624 13.202185 0.328427
v -0.491159 4.197387 0.235169
v -0.491159 13.202185 0.235169
v -0.548030 4.197387 0.128771
v -0.548030 13.202185 0.128771
v -0.583050 4.197387 0.013323
v -0.583050 13.202185 0.013323
v -0.594875 4.197387 -0.106739
v -0.594875 13.202185 -0.106739
v -0.583050 4.197387 -0.226801
v -0.583050 13.202185 -0.226801
v -0.548029 4.197387 -0.342249
v -0.548029 13.202185 -0.342249
v -0.491158 4.197387 -0.448646
v -0.491158 13.202185 -0.448646
v -0.414623 4.197387 -0.541904
v -0.414623 13.202185 -0.541904
v -0.321365 4.197387 -0.618439
v -0.321365 13.202185 -0.618439
v -0.214967 4.197387 -0.675309
v -0.214967 13.202185 -0.675309
v -0.099520 4.197387 -0.710330
v -0.099520 13.202185 -0.710330
v -0.982160 13.200788 0.889469
v -0.982160 15.200788 0.889469
v -0.982160 13.200788 -1.110531
v -0.982160 15.200788 -1.110531
v 1.017840 13.200788 0.889469
v 1.017840 15.200788 0.889469
v 1.017840 13.200788 -1.110531
v 1.017840 15.200788 -1.110531
vt -0.995519 -0.995518
vt 1.995519 -0.995518
vt 1.995519 1.995518
vt -0.995519 1.995518
vt -0.995519 -0.995518
vt 1.995519 -0.995518
vt 1.995519 1.995518
vt -0.995519 1.995518
vt 1.995519 -0.995518
vt 1.995519 1.995518
vt -0.995519 1.995518
vt -0.995519 -0.995518
vt 1.995519 -0.995518
vt -0.995519 1.995518
vt -0.995519 -0.995518
vt 1.995519 -0.995518
vt 1.995519 1.995518
vt 1.995519 -0.995518
vt 1.995519 1.995518
vt -0.995519 1.995518
vt -0.995519 -0.995518
vt 1.995519 -0.995518
vt 1.995519 1.995518
vt -0.995519 1.995518
vt 0.000000 0.000000
vt 1.000000 0.000000
vt 1.000000 1.000000
vt 0.000000 1.000000
vt 0.000000 0.000000
vt 1.000000 0.000000
vt 1.000000 1.000000
vt 0.000000 0.000000
vt 1.000000 0.000000
vt 1.000000 1.000000
vt 0.000000 1.000000
vt 1.000000 0.000000
vt 1.000000 1.000000
vt 0.000000 1.000000
vt 0.000000 0.000000
vt 1.000000 0.000000
vt 1.000000 1.000000
vt 0.000000 1.000000
vt 0.000000 0.000000
vt 1.000000 0.000000
vt 1.000000 1.000000
vt 0.000000 1.000000
vt 0.000000 0.000000
vt 1.000000 0.000000
vt 1.000000 1.000000
vt 0.000000 1.000000
vt 0.000000 0.000000
vt 1.000000 0.000000
vt 1.000000 1.000000
vt 0.000000 1.000000
vt 0.000000 0.000000
vt 1.000000 0.000000
vt 1.000000 1.000000
vt 0.000000 1.000000
vt 0.000000 0.000000
vt 1.000000 0.000000
vt 1.000000 1.000000
vt 0.000000 1.000000
vt 0.000000 0.000000
vt 1.000000 0.000000
vt 1.000000 1.000000
vt 0.000000 1.000000
vt 0.000000 0.000000
vt 1.000000 0.000000
vt 1.000000 1.000000
vt 0.000000 1.000000
vt 0.000000 0.000000
vt 1.000000 0.000000
vt 1.000000 1.000000
vt 0.000000 1.000000
vt 0.000000 0.000000
vt 1.000000 0.000000
vt 1.000000 1.000000
vt 0.000000 1.000000
vt 0.000000 0.000000
vt 1.000000 0.000000
vt 1.000000 1.000000
vt 0.000000 1.000000
vt 0.000000 0.000000
vt 1.000000 0.000000
vt 1.000000 1.000000
vt 0.000000 1.000000
vt 0.000000 0.000000
vt 1.000000 0.000000
vt 1.000000 1.000000
vt 0.000000 1.000000
vt 0.000000 0.000000
vt 1.000000 0.000000
vt 1.000000 1.000000
vt 0.000000 1.000000
vt 0.000000 0.000000
vt 1.000000 0.000000
vt 1.000000 1.000000
vt 0.000000 1.000000
vt 0.000000 0.000000
vt 1.000000 0.000000
vt 1.000000 1.000000
vt 0.000000 1.000000
vt 0.000000 0.000000
vt 1.000000 0.000000
vt 1.000000 1.000000
vt 0.000000 1.000000
vt 0.000000 0.000000
vt 1.000000 0.000000
vt 1.000000 1.000000
vt 0.000000 1.000000
vt 0.000000 0.000000
vt 1.000000 0.000000
vt 1.000000 1.000000
vt 0.000000 1.000000
vt 0.000000 0.000000
vt 1.000000 0.000000
vt 1.000000 1.000000
vt 0.000000 1.000000
vt 0.000000 0.000000
vt 1.000000 0.000000
vt 1.000000 1.000000
vt 0.000000 1.000000
vt 0.000000 0.000000
vt 1.000000 0.000000
vt 1.000000 1.000000
vt 0.000000 1.000000
vt 0.000000 0.000000
vt 1.000000 0.000000
vt 1.000000 1.000000
vt 0.000000 1.000000
vt 0.000000 0.000000
vt 1.000000 0.000000
vt 1.000000 1.000000
vt 0.000000 1.000000
vt 0.000000 0.000000
vt 1.000000 0.000000
vt 1.000000 1.000000
vt 0.000000 1.000000
vt 0.000000 0.000000
vt 1.000000 0.000000
vt 1.000000 1.000000
vt 0.000000 1.000000
vt 0.000000 0.000000
vt 1.000000 0.000000
vt 1.000000 1.000000
vt 0.000000 1.000000
vt 0.000000 0.000000
vt 1.000000 0.000000
vt 1.000000 1.000000
vt 0.000000 1.000000
vt 0.000000 0.000000
vt 1.000000 0.000000
vt 1.000000 1.000000
vt 0.000000 1.000000
vt 0.000000 0.000000
vt 1.000000 0.000000
vt 1.000000 1.000000
vt 0.000000 1.000000
vt 0.000000 0.000000
vt 1.000000 0.000000
vt 1.000000 1.000000
vt 0.000000 1.000000
vt 0.500000 1.000000
vt 0.597545 0.990393
vt 0.691342 0.961940
vt 0.777785 0.915735
vt 0.853553 0.853553
vt 0.915735 0.777785
vt 0.961940 0.691342
vt 0.990393 0.597545
vt 1.000000 0.500000
vt 0.990393 0.402455
vt 0.961940 0.308658
vt 0.915735 0.222215
vt 0.853553 0.146447
vt 0.777785 0.084265
vt 0.691342 0.038060
vt 0.597545 0.009607
vt 0.500000 0.000000
vt 0.402455 0.009607
vt 0.308658 0.038060
vt 0.222215 0.084265
vt 0.146446 0.146447
vt 0.084265 0.222215
vt 0.038060 0.308659
vt 0.009607 0.402455
vt 0.000000 0.500000
vt 0.009607 0.597546
vt 0.038060 0.691342
vt 0.084266 0.777786
vt 0.146447 0.853554
vt 0.222215 0.915735
vt 0.308659 0.961940
vt 0.402456 0.990393
vt 0.000000 0.000000
vt 1.000000 0.000000
vt 1.000000 1.000000
vt 0.000000 1.000000
vt 0.000000 0.000000
vt 1.000000 0.000000
vt 1.000000 1.000000
vt 0.000000 1.000000
vt 0.500000 1.000000
vt 0.597545 0.990393
vt 0.691342 0.961940
vt 0.777785 0.915735
vt 0.853553 0.853553
vt 0.915735 0.777785
vt 0.961940 0.691342
vt 0.990393 0.597545
vt 1.000000 0.500000
vt 0.990393 0.402455
vt 0.961940 0.308658
vt 0.915735 0.222215
vt 0.853553 0.146447
vt 0.777785 0.084265
vt 0.691342 0.038060
vt 0.597545 0.009607
vt 0.500000 0.000000
vt 0.402455 0.009607
vt 0.308658 0.038060
vt 0.222215 0.084265
vt 0.146446 0.146447
vt 0.084265 0.222215
vt 0.038060 0.308659
vt 0.009607 0.402455
vt 0.000000 0.500000
vt 0.009607 0.597546
vt 0.038060 0.691342
vt 0.084266 0.777786
vt 0.146447 0.853554
vt 0.222215 0.915735
vt 0.308659 0.961940
vt 0.402456 0.990393
vt 0.921296 0.081856
vt 0.921296 0.920332
vt 0.075104 0.091897
vt 0.924641 0.915311
vt 0.075104 0.925352
vt 0.071759 0.920332
vt 0.914607 0.076835
vt 0.071759 0.071814
vn 0.0000 -1.0000 0.0000
vn 0.0000 1.0000 -0.0000
vn 1.0000 -0.0000 0.0000
vn -0.0000 -0.0000 1.0000
vn -1.0000 -0.0000 -0.0000
vn 0.0000 0.0000 -1.0000
vn 0.0000 0.1911 0.9816
vn -0.9816 0.1911 0.0000
vn 0.0000 0.1911 -0.9816
vn 0.9816 0.1911 0.0000
vn 0.0980 0.0000 -0.9952
vn 0.2903 0.0000 -0.9569
vn 0.4714 0.0000 -0.8819
vn 0.6344 0.0000 -0.7730
vn 0.7730 0.0000 -0.6344
vn 0.8819 0.0000 -0.4714
vn 0.9569 0.0000 -0.2903
vn 0.9952 0.0000 -0.0980
vn 0.9952 0.0000 0.0980
vn 0.9569 0.0000 0.2903
vn 0.8819 0.0000 0.4714
vn 0.7730 0.0000 0.6344
vn 0.6344 0.0000 0.7730
vn 0.4714 0.0000 0.8819
vn 0.2903 0.0000 0.9569
vn 0.0980 0.0000 0.9952
vn -0.0980 0.0000 0.9952
vn -0.2903 0.0000 0.9569
vn -0.4714 0.0000 0.8819
vn -0.6344 0.0000 0.7730
vn -0.7730 0.0000 0.6344
vn -0.8819 0.0000 0.4714
vn -0.9569 0.0000 0.2903
vn -0.9952 0.0000 0.0980
vn -0.9952 0.0000 -0.0980
vn -0.9569 0.0000 -0.2903
vn -0.8819 0.0000 -0.4714
vn -0.7730 0.0000 -0.6344
vn -0.6344 0.0000 -0.7730
vn -0.4714 0.0000 -0.8819
vn -0.2903 0.0000 -0.9569
vn -0.0980 0.0000 -0.9952
usemtl Material
s off
f 1/1/1 2/2/1 3/3/1 4/4/1
f 5/5/2 8/6/2 7/7/2 6/8/2
f 1/1/3 5/9/3 6/10/3 2/11/3
f 2/12/4 6/13/4 7/7/4 3/14/4
f 3/15/5 7/16/5 8/17/5 4/4/5
f 5/5/6 1/18/6 4/19/6 8/20/6
f 9/21/1 13/22/1 15/23/1 11/24/1
usemtl Material_color_negro.png
f 14/25/2 10/26/2 12/27/2 16/28/2
f 12/29/7 11/30/7 15/31/7 16/28/7
f 10/32/8 9/33/8 11/34/8 12/35/8
f 14/25/9 13/36/9 9/37/9 10/38/9
f 16/39/10 15/40/10 13/41/10 14/42/10
f 17/43/11 18/44/11 20/45/11 19/46/11
f 19/47/12 20/48/12 22/49/12 21/50/12
f 21/51/13 22/52/13 24/53/13 23/54/13
f 23/55/14 24/56/14 26/57/14 25/58/14
f 25/59/15 26/60/15 28/61/15 27/62/15
f 27/63/16 28/64/16 30/65/16 29/66/16
f 29/67/17 30/68/17 32/69/17 31/70/17
f 31/71/18 32/72/18 34/73/18 33/74/18
f 33/75/19 34/76/19 36/77/19 35/78/19
f 35/79/20 36/80/20 38/81/20 37/82/20
f 37/83/21 38/84/21 40/85/21 39/86/21
f 39/87/22 40/88/22 42/89/22 41/90/22
f 41/91/23 42/92/23 44/93/23 43/94/23
f 43/95/24 44/96/24 46/97/24 45/98/24
f 45/99/25 46/100/25 48/101/25 47/102/25
f 47/103/26 48/104/26 50/105/26 49/106/26
f 49/107/27 50/108/27 52/109/27 51/110/27
f 51/111/28 52/112/28 54/113/28 53/114/28
f 53/115/29 54/116/29 56/117/29 55/118/29
f 55/119/30 56/120/30 58/121/30 57/122/30
f 57/123/31 58/124/31 60/125/31 59/126/31
f 59/127/32 60/128/32 62/129/32 61/130/32
f 61/131/33 62/132/33 64/133/33 63/134/33
f 63/135/34 64/136/34 66/137/34 65/138/34
f 65/139/35 66/140/35 68/141/35 67/142/35
f 67/143/36 68/144/36 70/145/36 69/146/36
f 69/147/37 70/148/37 72/149/37 71/150/37
f 71/151/38 72/152/38 74/153/38 73/154/38
f 73/155/39 74/156/39 76/157/39 75/158/39
f 75/159/40 76/160/40 78/161/40 77/162/40
f 20/163/2 18/164/2 80/165/2 78/166/2 76/167/2 74/168/2 72/169/2 70/170/2 68/171/2 66/172/2 64/173/2 62/174/2 60/175/2 58/176/2 56/177/2 54/178/2 52/179/2 50/180/2 48/181/2 46/182/2 44/183/2 42/184/2 40/185/2 38/186/2 36/187/2 34/188/2 32/189/2 30/190/2 28/191/2 26/192/2 24/193/2 22/194/2
f 77/195/41 78/196/41 80/197/41 79/198/41
f 79/199/42 80/200/42 18/201/42 17/202/42
f 17/203/1 19/204/1 21/205/1 23/206/1 25/207/1 27/208/1 29/209/1 31/210/1 33/211/1 35/212/1 37/213/1 39/214/1 41/215/1 43/216/1 45/217/1 47/218/1 49/219/1 51/220/1 53/221/1 55/222/1 57/223/1 59/224/1 61/225/1 63/226/1 65/227/1 67/228/1 69/229/1 71/230/1 73/231/1 75/232/1 77/233/1 79/234/1
usemtl Material_vidrio_roto.png
f 81/235/5 82/236/5 84/237/5 83/238/5
f 83/238/6 84/237/6 88/239/6 87/240/6
f 87/240/3 88/239/3 86/241/3 85/242/3
f 85/242/4 86/241/4 82/236/4 81/235/4
f 83/238/1 87/240/1 85/242/1 81/235/1
f 88/239/2 84/237/2 82/236/2 86/241/2
