# Blender v2.79 (sub 0) OBJ File: 'poste_luz2.blend'
# www.blender.org
mtllib poste_luz2.mtl
o Cube
v 4.013686 0.064357 -4.121439
v 4.013686 0.064357 3.878978
v -3.986731 0.064357 3.878977
v -3.986729 0.064357 -4.121441
v 4.013688 0.410529 -4.121438
v 4.013684 0.410529 3.878980
v -3.986732 0.410529 3.878976
v -3.986730 0.410529 -4.121439
v -1.630054 0.409245 -1.751691
v -0.891554 4.203045 -1.013191
v -1.630054 0.409245 1.571559
v -0.891554 4.203045 0.833059
v 1.693196 0.409245 -1.751691
v 0.954696 4.203045 -1.013191
v 1.693196 0.409245 1.571559
v 0.954696 4.203045 0.833059
v 0.020541 4.197387 -0.722155
v 0.020541 16.561499 -0.722155
v 0.140603 4.197387 -0.710330
v 0.140603 16.561499 -0.710330
v 0.256051 4.197387 -0.675309
v 0.256051 16.561499 -0.675309
v 0.362449 4.197387 -0.618438
v 0.362449 16.561499 -0.618438
v 0.455707 4.197387 -0.541903
v 0.455707 16.561499 -0.541903
v 0.532242 4.197387 -0.448645
v 0.532242 16.561499 -0.448645
v 0.589112 4.197387 -0.342248
v 0.589112 16.561499 -0.342248
v 0.624133 4.197387 -0.226800
v 0.624133 16.561499 -0.226800
v 0.635958 4.197387 -0.106738
v 0.635958 16.561499 -0.106738
v 0.624133 4.197387 0.013324
v 0.624133 16.561499 0.013324
v 0.589112 4.197387 0.128772
v 0.589112 16.561499 0.128772
v 0.532242 4.197387 0.235169
v 0.532242 16.561499 0.235169
v 0.455707 4.197387 0.328427
v 0.455707 16.561499 0.328427
v 0.362449 4.197387 0.404962
v 0.362449 16.561499 0.404962
v 0.256051 4.197387 0.461833
v 0.256051 16.561499 0.461833
v 0.140603 4.197387 0.496854
v 0.140603 16.561499 0.496854
v 0.020541 4.197387 0.508678
v 0.020541 16.561499 0.508678
v -0.099521 4.197387 0.496853
v -0.099521 16.561499 0.496853
v -0.214969 4.197387 0.461833
v -0.214969 16.561499 0.461833
v -0.321366 4.197387 0.404962
v -0.321366 16.561499 0.404962
v -0.414624 4.197387 0.328427
v -0.414624 16.561499 0.328427
v -0.491159 4.197387 0.235169
v -0.491159 16.561499 0.235169
v -0.548030 4.197387 0.128771
v -0.548030 16.561499 0.128771
v -0.583050 4.197387 0.013323
v -0.583050 16.561499 0.013323
v -0.594875 4.197387 -0.106739
v -0.594875 16.561499 -0.106739
v -0.583050 4.197387 -0.226801
v -0.583050 16.561499 -0.226801
v -0.548029 4.197387 -0.342249
v -0.548029 16.561499 -0.342249
v -0.491158 4.197387 -0.448646
v -0.491158 16.561499 -0.448646
v -0.414623 4.197387 -0.541904
v -0.414623 16.561499 -0.541904
v -0.321365 4.197387 -0.618439
v -0.321365 16.561499 -0.618439
v -0.214967 4.197387 -0.675309
v -0.214967 16.561499 -0.675309
v -0.099520 4.197387 -0.710330
v -0.099520 16.561499 -0.710330
v -1.224142 15.959939 0.609469
v -1.224142 16.792839 0.609469
v -1.224142 15.959939 -0.830531
v -1.224142 16.792839 -0.830531
v 6.120267 15.959939 0.609469
v 6.120267 16.792839 0.609469
v 6.120267 15.959939 -0.830531
v 6.120267 16.792839 -0.830531
v 4.179360 15.468030 1.089469
v 4.179360 15.968028 1.089469
v 4.179360 15.468030 -1.310531
v 4.179360 15.968028 -1.310531
v 6.979361 15.468030 1.089469
v 6.979361 15.968028 1.089469
v 6.979361 15.468030 -1.310531
v 6.979361 15.968028 -1.310531
vt -2.038835 -2.038835
vt 3.038835 -2.038835
vt 3.038835 3.038835
vt -2.038835 3.038835
vt -2.038835 -2.038835
vt 3.038835 -2.038835
vt 3.038835 3.038835
vt -2.038835 3.038835
vt 3.038835 -2.038835
vt 3.038835 3.038835
vt -2.038835 3.038835
vt -2.038835 -2.038835
vt 3.038835 -2.038835
vt -2.038835 3.038835
vt -2.038835 -2.038835
vt 3.038835 -2.038835
vt 3.038835 3.038835
vt 3.038835 -2.038835
vt 3.038835 3.038835
vt -2.038835 3.038835
vt 0.000000 0.000000
vt 1.000000 0.000000
vt 1.000000 1.000000
vt 0.000000 1.000000
vt 0.000000 0.000000
vt 1.000000 0.000000
vt 1.000000 1.000000
vt 0.000000 0.000000
vt 1.000000 0.000000
vt 1.000000 1.000000
vt 0.000000 1.000000
vt 1.000000 0.000000
vt 1.000000 1.000000
vt 0.000000 1.000000
vt 0.000000 0.000000
vt 1.000000 0.000000
vt 1.000000 1.000000
vt 0.000000 1.000000
vt 0.000000 0.000000
vt 1.000000 0.000000
vt 1.000000 1.000000
vt 0.000000 1.000000
vt 0.000000 0.000000
vt 1.000000 0.000000
vt 1.000000 1.000000
vt 0.000000 1.000000
vt 0.000000 0.000000
vt 1.000000 0.000000
vt 1.000000 1.000000
vt 0.000000 1.000000
vt 0.000000 0.000000
vt 1.000000 0.000000
vt 1.000000 1.000000
vt 0.000000 1.000000
vt 0.000000 0.000000
vt 1.000000 0.000000
vt 1.000000 1.000000
vt 0.000000 1.000000
vt 0.000000 0.000000
vt 1.000000 0.000000
vt 1.000000 1.000000
vt 0.000000 1.000000
vt 0.000000 0.000000
vt 1.000000 0.000000
vt 1.000000 1.000000
vt 0.000000 1.000000
vt 0.000000 0.000000
vt 1.000000 0.000000
vt 1.000000 1.000000
vt 0.000000 1.000000
vt 0.000000 0.000000
vt 1.000000 0.000000
vt 1.000000 1.000000
vt 0.000000 1.000000
vt 0.000000 0.000000
vt 1.000000 0.000000
vt 1.000000 1.000000
vt 0.000000 1.000000
vt 0.000000 0.000000
vt 1.000000 0.000000
vt 1.000000 1.000000
vt 0.000000 1.000000
vt 0.000000 0.000000
vt 1.000000 0.000000
vt 1.000000 1.000000
vt 0.000000 1.000000
vt 0.000000 0.000000
vt 1.000000 0.000000
vt 1.000000 1.000000
vt 0.000000 1.000000
vt 0.000000 0.000000
vt 1.000000 0.000000
vt 1.000000 1.000000
vt 0.000000 1.000000
vt 0.000000 0.000000
vt 1.000000 0.000000
vt 1.000000 1.000000
vt 0.000000 1.000000
vt 0.000000 0.000000
vt 1.000000 0.000000
vt 1.000000 1.000000
vt 0.000000 1.000000
vt 0.000000 0.000000
vt 1.000000 0.000000
vt 1.000000 1.000000
vt 0.000000 1.000000
vt 0.000000 0.000000
vt 1.000000 0.000000
vt 1.000000 1.000000
vt 0.000000 1.000000
vt 0.000000 0.000000
vt 1.000000 0.000000
vt 1.000000 1.000000
vt 0.000000 1.000000
vt 0.000000 0.000000
vt 1.000000 0.000000
vt 1.000000 1.000000
vt 0.000000 1.000000
vt 0.000000 0.000000
vt 1.000000 0.000000
vt 1.000000 1.000000
vt 0.000000 1.000000
vt 0.000000 0.000000
vt 1.000000 0.000000
vt 1.000000 1.000000
vt 0.000000 1.000000
vt 0.000000 0.000000
vt 1.000000 0.000000
vt 1.000000 1.000000
vt 0.000000 1.000000
vt 0.000000 0.000000
vt 1.000000 0.000000
vt 1.000000 1.000000
vt 0.000000 1.000000
vt 0.000000 0.000000
vt 1.000000 0.000000
vt 1.000000 1.000000
vt 0.000000 1.000000
vt 0.000000 0.000000
vt 1.000000 0.000000
vt 1.000000 1.000000
vt 0.000000 1.000000
vt 0.000000 0.000000
vt 1.000000 0.000000
vt 1.000000 1.000000
vt 0.000000 1.000000
vt 0.000000 0.000000
vt 1.000000 0.000000
vt 1.000000 1.000000
vt 0.000000 1.000000
vt 0.000000 0.000000
vt 1.000000 0.000000
vt 1.000000 1.000000
vt 0.000000 1.000000
vt 0.000000 0.000000
vt 1.000000 0.000000
vt 1.000000 1.000000
vt 0.000000 1.000000
vt 0.500000 1.000000
vt 0.597545 0.990393
vt 0.691342 0.961940
vt 0.777785 0.915735
vt 0.853553 0.853553
vt 0.915735 0.777785
vt 0.961940 0.691342
vt 0.990393 0.597545
vt 1.000000 0.500000
vt 0.990393 0.402455
vt 0.961940 0.308658
vt 0.915735 0.222215
vt 0.853553 0.146447
vt 0.777785 0.084265
vt 0.691342 0.038060
vt 0.597545 0.009607
vt 0.500000 0.000000
vt 0.402455 0.009607
vt 0.308658 0.038060
vt 0.222215 0.084265
vt 0.146446 0.146447
vt 0.084265 0.222215
vt 0.038060 0.308659
vt 0.009607 0.402455
vt 0.000000 0.500000
vt 0.009607 0.597546
vt 0.038060 0.691342
vt 0.084266 0.777786
vt 0.146447 0.853554
vt 0.222215 0.915735
vt 0.308659 0.961940
vt 0.402456 0.990393
vt 0.000000 0.000000
vt 1.000000 0.000000
vt 1.000000 1.000000
vt 0.000000 1.000000
vt 0.000000 0.000000
vt 1.000000 0.000000
vt 1.000000 1.000000
vt 0.000000 1.000000
vt 0.500000 1.000000
vt 0.597545 0.990393
vt 0.691342 0.961940
vt 0.777785 0.915735
vt 0.853553 0.853553
vt 0.915735 0.777785
vt 0.961940 0.691342
vt 0.990393 0.597545
vt 1.000000 0.500000
vt 0.990393 0.402455
vt 0.961940 0.308658
vt 0.915735 0.222215
vt 0.853553 0.146447
vt 0.777785 0.084265
vt 0.691342 0.038060
vt 0.597545 0.009607
vt 0.500000 0.000000
vt 0.402455 0.009607
vt 0.308658 0.038060
vt 0.222215 0.084265
vt 0.146446 0.146447
vt 0.084265 0.222215
vt 0.038060 0.308659
vt 0.009607 0.402455
vt 0.000000 0.500000
vt 0.009607 0.597546
vt 0.038060 0.691342
vt 0.084266 0.777786
vt 0.146447 0.853554
vt 0.222215 0.915735
vt 0.308659 0.961940
vt 0.402456 0.990393
vt 0.000000 0.000000
vt 0.000000 0.000000
vt 0.000000 0.000000
vt 0.000000 0.000000
vt 0.000000 0.000000
vt 0.000000 0.000000
vt 0.000000 0.000000
vt 0.000000 0.000000
vt 0.000000 0.000000
vt 0.000000 0.000000
vt 0.000000 0.000000
vt 0.000000 0.000000
vt 0.954778 0.942846
vt 0.954778 0.035963
vt 0.039360 0.016209
vt 0.046036 0.939802
vt 0.060369 0.925205
vt 0.060369 0.047160
vt 0.923236 0.037452
vt 0.932931 0.924094
vt 0.944408 0.052422
vt 0.944408 0.945479
vt 0.062103 0.945479
vt 0.065300 0.052422
vt 0.951671 0.035069
vt 0.051537 0.038370
vt 0.062266 0.936081
vt 0.949212 0.937214
vt 0.095931 0.912717
vt 0.086527 0.079858
vt 0.923497 0.082996
vt 0.927428 0.915575
vt 0.000000 0.000000
vt 0.000000 1.000000
vn 0.0000 -1.0000 0.0000
vn 0.0000 1.0000 -0.0000
vn 1.0000 -0.0000 0.0000
vn -0.0000 -0.0000 1.0000
vn -1.0000 -0.0000 -0.0000
vn 0.0000 0.0000 -1.0000
vn 0.0000 0.1911 0.9816
vn -0.9816 0.1911 0.0000
vn 0.0000 0.1911 -0.9816
vn 0.9816 0.1911 0.0000
vn 0.0980 0.0000 -0.9952
vn 0.2903 0.0000 -0.9569
vn 0.4714 0.0000 -0.8819
vn 0.6344 0.0000 -0.7730
vn 0.7730 0.0000 -0.6344
vn 0.8819 0.0000 -0.4714
vn 0.9569 0.0000 -0.2903
vn 0.9952 0.0000 -0.0980
vn 0.9952 0.0000 0.0980
vn 0.9569 0.0000 0.2903
vn 0.8819 0.0000 0.4714
vn 0.7730 0.0000 0.6344
vn 0.6344 0.0000 0.7730
vn 0.4714 0.0000 0.8819
vn 0.2903 0.0000 0.9569
vn 0.0980 0.0000 0.9952
vn -0.0980 0.0000 0.9952
vn -0.2903 0.0000 0.9569
vn -0.4714 0.0000 0.8819
vn -0.6344 0.0000 0.7730
vn -0.7730 0.0000 0.6344
vn -0.8819 0.0000 0.4714
vn -0.9569 0.0000 0.2903
vn -0.9952 0.0000 0.0980
vn -0.9952 0.0000 -0.0980
vn -0.9569 0.0000 -0.2903
vn -0.8819 0.0000 -0.4714
vn -0.7730 0.0000 -0.6344
vn -0.6344 0.0000 -0.7730
vn -0.4714 0.0000 -0.8819
vn -0.2903 0.0000 -0.9569
vn -0.0980 0.0000 -0.9952
usemtl Material
s off
f 1/1/1 2/2/1 3/3/1 4/4/1
f 5/5/2 8/6/2 7/7/2 6/8/2
f 1/1/3 5/9/3 6/10/3 2/11/3
f 2/12/4 6/13/4 7/7/4 3/14/4
f 3/15/5 7/16/5 8/17/5 4/4/5
f 5/5/6 1/18/6 4/19/6 8/20/6
usemtl Material_color_negro.png
f 14/21/2 10/22/2 12/23/2 16/24/2
f 12/25/7 11/26/7 15/27/7 16/24/7
f 10/28/8 9/29/8 11/30/8 12/31/8
f 14/21/9 13/32/9 9/33/9 10/34/9
f 16/35/10 15/36/10 13/37/10 14/38/10
f 17/39/11 18/40/11 20/41/11 19/42/11
f 19/43/12 20/44/12 22/45/12 21/46/12
f 21/47/13 22/48/13 24/49/13 23/50/13
f 23/51/14 24/52/14 26/53/14 25/54/14
f 25/55/15 26/56/15 28/57/15 27/58/15
f 27/59/16 28/60/16 30/61/16 29/62/16
f 29/63/17 30/64/17 32/65/17 31/66/17
f 31/67/18 32/68/18 34/69/18 33/70/18
f 33/71/19 34/72/19 36/73/19 35/74/19
f 35/75/20 36/76/20 38/77/20 37/78/20
f 37/79/21 38/80/21 40/81/21 39/82/21
f 39/83/22 40/84/22 42/85/22 41/86/22
f 41/87/23 42/88/23 44/89/23 43/90/23
f 43/91/24 44/92/24 46/93/24 45/94/24
f 45/95/25 46/96/25 48/97/25 47/98/25
f 47/99/26 48/100/26 50/101/26 49/102/26
f 49/103/27 50/104/27 52/105/27 51/106/27
f 51/107/28 52/108/28 54/109/28 53/110/28
f 53/111/29 54/112/29 56/113/29 55/114/29
f 55/115/30 56/116/30 58/117/30 57/118/30
f 57/119/31 58/120/31 60/121/31 59/122/31
f 59/123/32 60/124/32 62/125/32 61/126/32
f 61/127/33 62/128/33 64/129/33 63/130/33
f 63/131/34 64/132/34 66/133/34 65/134/34
f 65/135/35 66/136/35 68/137/35 67/138/35
f 67/139/36 68/140/36 70/141/36 69/142/36
f 69/143/37 70/144/37 72/145/37 71/146/37
f 71/147/38 72/148/38 74/149/38 73/150/38
f 73/151/39 74/152/39 76/153/39 75/154/39
f 75/155/40 76/156/40 78/157/40 77/158/40
f 20/159/2 18/160/2 80/161/2 78/162/2 76/163/2 74/164/2 72/165/2 70/166/2 68/167/2 66/168/2 64/169/2 62/170/2 60/171/2 58/172/2 56/173/2 54/174/2 52/175/2 50/176/2 48/177/2 46/178/2 44/179/2 42/180/2 40/181/2 38/182/2 36/183/2 34/184/2 32/185/2 30/186/2 28/187/2 26/188/2 24/189/2 22/190/2
f 77/191/41 78/192/41 80/193/41 79/194/41
f 79/195/42 80/196/42 18/197/42 17/198/42
f 17/199/1 19/200/1 21/201/1 23/202/1 25/203/1 27/204/1 29/205/1 31/206/1 33/207/1 35/208/1 37/209/1 39/210/1 41/211/1 43/212/1 45/213/1 47/214/1 49/215/1 51/216/1 53/217/1 55/218/1 57/219/1 59/220/1 61/221/1 63/222/1 65/223/1 67/224/1 69/225/1 71/226/1 73/227/1 75/228/1 77/229/1 79/230/1
f 81/231/5 82/232/5 84/233/5 83/234/5
f 83/234/6 84/233/6 88/235/6 87/236/6
f 87/236/3 88/235/3 86/237/3 85/238/3
f 85/238/4 86/237/4 82/232/4 81/231/4
f 83/234/1 87/236/1 85/238/1 81/231/1
f 88/235/2 84/233/2 82/232/2 86/237/2
f 96/239/2 92/240/2 90/241/2 94/242/2
usemtl Material_vidrio_roto.png
f 89/243/5 90/244/5 92/245/5 91/246/5
f 91/247/6 92/248/6 96/249/6 95/250/6
f 95/251/3 96/252/3 94/253/3 93/254/3
f 93/255/4 94/256/4 90/257/4 89/258/4
f 91/259/1 95/260/1 93/261/1 89/262/1
usemtl Material_NONE
f 9/263/1 13/32/1 15/27/1 11/264/1
